/* XPM */
static char * arrows_small_xpm[] = {
"64 64 687 2",
"  	c None",
". 	c #5D5D72",
"+ 	c #5C5C71",
"@ 	c #5B5B70",
"# 	c #5B5B6F",
"$ 	c #5A5A6E",
"% 	c #59596D",
"& 	c #5A5A6F",
"* 	c #545467",
"= 	c #434759",
"- 	c #494A5B",
"; 	c #555569",
"> 	c #545468",
", 	c #555568",
"' 	c #565669",
") 	c #56566A",
"! 	c #57576B",
"~ 	c #58586C",
"{ 	c #59596C",
"] 	c #2B3951",
"^ 	c #234F80",
"/ 	c #1C3D62",
"( 	c #363847",
"_ 	c #494959",
": 	c #2F3A4E",
"< 	c #2B3D56",
"[ 	c #393D4D",
"} 	c #525265",
"| 	c #58586D",
"1 	c #51505D",
"2 	c #6C6871",
"3 	c #55535F",
"4 	c #515162",
"5 	c #243D62",
"6 	c #244C82",
"7 	c #21487F",
"8 	c #1F2E45",
"9 	c #3C3F4C",
"0 	c #2A5587",
"a 	c #224C7C",
"b 	c #183455",
"c 	c #454555",
"d 	c #4E4E60",
"e 	c #525264",
"f 	c #716E7B",
"g 	c #495467",
"h 	c #1B416B",
"i 	c #272D3C",
"j 	c #5B5968",
"k 	c #25446D",
"l 	c #264E86",
"m 	c #214882",
"n 	c #24304A",
"o 	c #4A5061",
"p 	c #2A5388",
"q 	c #224A7F",
"r 	c #16355B",
"s 	c #373743",
"t 	c #464656",
"u 	c #4B4B5C",
"v 	c #505062",
"w 	c #4F4F61",
"x 	c #817C87",
"y 	c #324766",
"z 	c #234B7E",
"A 	c #182941",
"B 	c #605B68",
"C 	c #22436C",
"D 	c #254A80",
"E 	c #204176",
"F 	c #242E48",
"G 	c #465065",
"H 	c #264E83",
"I 	c #22467B",
"J 	c #153055",
"K 	c #30303B",
"L 	c #33333E",
"M 	c #272C3A",
"N 	c #444454",
"O 	c #4C4C5D",
"P 	c #87828C",
"Q 	c #273F5E",
"R 	c #234C81",
"S 	c #1C2C49",
"T 	c #79707C",
"U 	c #224473",
"V 	c #264980",
"W 	c #21427A",
"X 	c #2E334A",
"Y 	c #3C4A66",
"Z 	c #234478",
"` 	c #224578",
" .	c #162E51",
"..	c #2B2B35",
"+.	c #2D3444",
"@.	c #1E4472",
"#.	c #1F2C42",
"$.	c #4A4A5A",
"%.	c #4A495A",
"&.	c #84818C",
"*.	c #1F395C",
"=.	c #224A7E",
"-.	c #202C48",
";.	c #736D7A",
">.	c #224474",
",.	c #22477D",
"'.	c #22447E",
").	c #303242",
"!.	c #344666",
"~.	c #224678",
"{.	c #204476",
"].	c #192B4A",
"^.	c #25252C",
"/.	c #31405B",
"(.	c #20477A",
"_.	c #1D3557",
":.	c #434352",
"<.	c #4A4A5B",
"[.	c #5C5C70",
"}.	c #404052",
"|.	c #3F3E4C",
"1.	c #59596E",
"2.	c #484857",
"3.	c #85828E",
"4.	c #1D385C",
"5.	c #21497E",
"6.	c #26324B",
"7.	c #524C56",
"8.	c #22477B",
"9.	c #22467C",
"0.	c #21427B",
"a.	c #353643",
"b.	c #2E456B",
"c.	c #244478",
"d.	c #21447B",
"e.	c #202D44",
"f.	c #2A2A30",
"g.	c #2C4266",
"h.	c #1F4980",
"i.	c #192A43",
"j.	c #3D3D4B",
"k.	c #58586B",
"l.	c #353542",
"m.	c #4C4C5F",
"n.	c #424254",
"o.	c #414152",
"p.	c #3C3B4E",
"q.	c #414151",
"r.	c #535366",
"s.	c #535367",
"t.	c #3E3E4C",
"u.	c #83808A",
"v.	c #1C355C",
"w.	c #21477F",
"x.	c #2C3956",
"y.	c #433F49",
"z.	c #224A82",
"A.	c #224880",
"B.	c #1F4179",
"C.	c #3E3E4E",
"D.	c #233E66",
"E.	c #22457D",
"F.	c #224480",
"G.	c #262E40",
"H.	c #434249",
"I.	c #1E3A64",
"J.	c #22467E",
"K.	c #182438",
"L.	c #464657",
"M.	c #3B3B4D",
"N.	c #464558",
"O.	c #3D3C4D",
"P.	c #434354",
"Q.	c #434355",
"R.	c #434254",
"S.	c #4F4E62",
"T.	c #4C4B60",
"U.	c #414054",
"V.	c #373647",
"W.	c #2E2D3A",
"X.	c #4C3743",
"Y.	c #523C4A",
"Z.	c #543F4D",
"`.	c #553F4E",
" +	c #55404E",
".+	c #533E4C",
"++	c #513D4A",
"@+	c #4D3A47",
"#+	c #392B35",
"$+	c #7D7B87",
"%+	c #18335A",
"&+	c #214881",
"*+	c #303D5C",
"=+	c #3F3A46",
"-+	c #21457B",
";+	c #1D4076",
">+	c #434250",
",+	c #203A64",
"'+	c #22447C",
")+	c #1E467D",
"!+	c #40404D",
"~+	c #4D4A55",
"{+	c #1E3B68",
"]+	c #204679",
"^+	c #171B29",
"/+	c #2F232B",
"(+	c #372933",
"_+	c #40303B",
":+	c #483642",
"<+	c #4E3A47",
"[+	c #513C4A",
"}+	c #3F3441",
"|+	c #383749",
"1+	c #3D3C4F",
"2+	c #48465C",
"3+	c #504F63",
"4+	c #4A485B",
"5+	c #3E3D4E",
"6+	c #404051",
"7+	c #4F4F62",
"8+	c #2E2D3D",
"9+	c #504F62",
"0+	c #4E4C61",
"a+	c #444359",
"b+	c #434258",
"c+	c #46455A",
"d+	c #313043",
"e+	c #A66739",
"f+	c #A46638",
"g+	c #A36538",
"h+	c #A06337",
"i+	c #9B6035",
"j+	c #935B32",
"k+	c #6F472B",
"l+	c #817E89",
"m+	c #1A355B",
"n+	c #20477E",
"o+	c #30446B",
"p+	c #3A373E",
"q+	c #23467B",
"r+	c #49454D",
"s+	c #1C3A65",
"t+	c #20467E",
"u+	c #204983",
"v+	c #303038",
"w+	c #504F5E",
"x+	c #1F447A",
"y+	c #1E457B",
"z+	c #2C221F",
"A+	c #56351D",
"B+	c #684123",
"C+	c #7B4C2A",
"D+	c #8B5630",
"E+	c #975E34",
"F+	c #A06336",
"G+	c #634335",
"H+	c #413F55",
"I+	c #47465B",
"J+	c #47465C",
"K+	c #535265",
"L+	c #414052",
"M+	c #2B2B36",
"N+	c #4D4D5E",
"O+	c #57576A",
"P+	c #4B4B5D",
"Q+	c #363646",
"R+	c #323145",
"S+	c #3E3C52",
"T+	c #424157",
"U+	c #3A394E",
"V+	c #292839",
"W+	c #23232E",
"X+	c #37222A",
"Y+	c #3D2831",
"Z+	c #402B35",
"`+	c #422C36",
" @	c #412B35",
".@	c #402A34",
"+@	c #322A37",
"@@	c #2A2C40",
"#@	c #322834",
"$@	c #2D2026",
"%@	c #6C6A74",
"&@	c #183359",
"*@	c #1E447A",
"=@	c #28416F",
"-@	c #3B3942",
";@	c #21447A",
">@	c #214478",
",@	c #1E3F72",
"'@	c #49464F",
")@	c #1D3C6A",
"!@	c #1F457C",
"~@	c #1F437A",
"{@	c #3D3A40",
"]@	c #444A59",
"^@	c #1F467C",
"/@	c #1E4478",
"(@	c #131016",
"_@	c #21161B",
":@	c #291B21",
"<@	c #302028",
"[@	c #37252D",
"}@	c #3C2831",
"|@	c #3E2A34",
"1@	c #31262F",
"2@	c #2B2A3A",
"3@	c #323144",
"4@	c #414056",
"5@	c #38364B",
"6@	c #2D2C3D",
"7@	c #2A2A36",
"8@	c #3A3A47",
"9@	c #49495A",
"0@	c #5C5C72",
"a@	c #484858",
"b@	c #3A3A48",
"c@	c #2C2C3A",
"d@	c #2F2E41",
"e@	c #22222B",
"f@	c #2C2C35",
"g@	c #363642",
"h@	c #424250",
"i@	c #424251",
"j@	c #414150",
"k@	c #40404E",
"l@	c #233450",
"m@	c #1F3E72",
"n@	c #20304D",
"o@	c #38373F",
"p@	c #6B6670",
"q@	c #193054",
"r@	c #1F4072",
"s@	c #223F6F",
"t@	c #373844",
"u@	c #22447B",
"v@	c #24447E",
"w@	c #1E3964",
"x@	c #44404C",
"y@	c #1E3C6B",
"z@	c #20437B",
"A@	c #1D3D70",
"B@	c #474249",
"C@	c #38425E",
"D@	c #214880",
"E@	c #1B3E6B",
"F@	c #15151B",
"G@	c #212129",
"H@	c #292933",
"I@	c #31313D",
"J@	c #383845",
"K@	c #3F3F4F",
"L@	c #3F3F4D",
"M@	c #2C2C3B",
"N@	c #363549",
"O@	c #282837",
"P@	c #2A2A33",
"Q@	c #353541",
"R@	c #383846",
"S@	c #2C2C39",
"T@	c #2B2B34",
"U@	c #3C3C49",
"V@	c #515163",
"W@	c #515164",
"X@	c #4D4D5F",
"Y@	c #283753",
"Z@	c #203F72",
"`@	c #203B67",
" #	c #3B3B44",
".#	c #7C7682",
"+#	c #183155",
"@#	c #204376",
"##	c #1C3D71",
"$#	c #223B68",
"%#	c #23447E",
"&#	c #1F3A69",
"*#	c #35384B",
"=#	c #204075",
"-#	c #22457E",
";#	c #1C3862",
">#	c #4E4A52",
",#	c #314165",
"'#	c #244782",
")#	c #15355C",
"!#	c #1C1D23",
"~#	c #33333F",
"{#	c #3D3D4C",
"]#	c #4F4F60",
"^#	c #484859",
"/#	c #2D2D38",
"(#	c #333340",
"_#	c #31313C",
":#	c #474757",
"<#	c #4C4C5E",
"[#	c #464655",
"}#	c #303C52",
"|#	c #203F74",
"1#	c #203C6D",
"2#	c #3A3C45",
"3#	c #7A7785",
"4#	c #1A3154",
"5#	c #224278",
"6#	c #1E4074",
"7#	c #22406F",
"8#	c #2F4466",
"9#	c #303F5B",
"0#	c #293D5F",
"a#	c #1B3963",
"b#	c #1C3760",
"c#	c #4F4B53",
"d#	c #283C65",
"e#	c #152F53",
"f#	c #22232B",
"g#	c #2E2E39",
"h#	c #393946",
"i#	c #394154",
"j#	c #1F3C6A",
"k#	c #203F73",
"l#	c #40495E",
"m#	c #7B7682",
"n#	c #1F3452",
"o#	c #243A62",
"p#	c #485166",
"q#	c #605E6A",
"r#	c #64626C",
"s#	c #68646F",
"t#	c #66646F",
"u#	c #5F606D",
"v#	c #474E61",
"w#	c #293C63",
"x#	c #1B2F54",
"y#	c #20497F",
"z#	c #132A46",
"A#	c #26262E",
"B#	c #3C3C4A",
"C#	c #393F52",
"D#	c #254170",
"E#	c #203860",
"F#	c #40424E",
"G#	c #73717D",
"H#	c #2A3C5A",
"I#	c #243552",
"J#	c #61616D",
"K#	c #74707C",
"L#	c #777481",
"M#	c #6D6A77",
"N#	c #666470",
"O#	c #706E7A",
"P#	c #7B7886",
"Q#	c #74727F",
"R#	c #64636D",
"S#	c #565765",
"T#	c #304462",
"U#	c #1D4679",
"V#	c #142B48",
"W#	c #27272F",
"X#	c #47495B",
"Y#	c #243E6A",
"Z#	c #204279",
"`#	c #3D404E",
" $	c #787682",
".$	c #293750",
"+$	c #484956",
"@$	c #6B6874",
"#$	c #6C6A76",
"$$	c #6A6874",
"%$	c #575560",
"&$	c #666570",
"*$	c #626069",
"=$	c #696874",
"-$	c #404E61",
";$	c #121E2D",
">$	c #272730",
",$	c #243652",
"'$	c #1E3E72",
")$	c #414C64",
"!$	c #2A3348",
"~$	c #5E5F6C",
"{$	c #6C6A78",
"]$	c #6A6875",
"^$	c #706E7B",
"/$	c #676572",
"($	c #5C5A66",
"_$	c #62606D",
":$	c #64626E",
"<$	c #65626E",
"[$	c #706C79",
"}$	c #73707D",
"|$	c #76707B",
"1$	c #2E3238",
"2$	c #292932",
"3$	c #343440",
"4$	c #40404F",
"5$	c #263651",
"6$	c #214076",
"7$	c #38435A",
"8$	c #797784",
"9$	c #2A354D",
"0$	c #60606A",
"a$	c #726F7C",
"b$	c #6A6876",
"c$	c #706F7C",
"d$	c #64626F",
"e$	c #5E5C68",
"f$	c #6B6875",
"g$	c #716D7A",
"h$	c #7B7784",
"i$	c #67626E",
"j$	c #424049",
"k$	c #303C54",
"l$	c #213D6D",
"m$	c #25385A",
"n$	c #75727E",
"o$	c #22324E",
"p$	c #595A66",
"q$	c #65636F",
"r$	c #686572",
"s$	c #64606D",
"t$	c #7A7682",
"u$	c #706C77",
"v$	c #414048",
"w$	c #535365",
"x$	c #3A4256",
"y$	c #254272",
"z$	c #21365B",
"A$	c #6F7079",
"B$	c #19345B",
"C$	c #42485A",
"D$	c #66636E",
"E$	c #686673",
"F$	c #63616D",
"G$	c #676571",
"H$	c #6D6B77",
"I$	c #787582",
"J$	c #6C6976",
"K$	c #787480",
"L$	c #63606B",
"M$	c #2D2D34",
"N$	c #2C2C36",
"O$	c #4E5061",
"P$	c #1F3456",
"Q$	c #26406C",
"R$	c #3C485A",
"S$	c #1E4375",
"T$	c #213860",
"U$	c #484D5E",
"V$	c #585864",
"W$	c #605E67",
"X$	c #696670",
"Y$	c #686570",
"Z$	c #706C78",
"`$	c #6F6C79",
" %	c #726E7B",
".%	c #706C7A",
"+%	c #6A6772",
"@%	c #2E2E38",
"#%	c #2F3C53",
"$%	c #1F375F",
"%%	c #1F4374",
"&%	c #1E4071",
"*%	c #1E3F74",
"=%	c #1B3C6C",
"-%	c #223A63",
";%	c #33405A",
">%	c #424452",
",%	c #55545E",
"'%	c #625E6A",
")%	c #6E6A76",
"!%	c #726E7C",
"~%	c #787482",
"{%	c #716E7A",
"]%	c #676470",
"^%	c #494851",
"/%	c #24242D",
"(%	c #4F5464",
"_%	c #0F223A",
":%	c #204C82",
"<%	c #214278",
"[%	c #224077",
"}%	c #1E3F75",
"|%	c #20427B",
"1%	c #1D3A6B",
"2%	c #223964",
"3%	c #283A5C",
"4%	c #324162",
"5%	c #3E485E",
"6%	c #4D5364",
"7%	c #565866",
"8%	c #2E3037",
"9%	c #32323D",
"0%	c #4E4F60",
"a%	c #202B39",
"b%	c #204475",
"c%	c #203E74",
"d%	c #224178",
"e%	c #204073",
"f%	c #1E3E70",
"g%	c #1E4075",
"h%	c #1F4178",
"i%	c #1E4078",
"j%	c #1E447C",
"k%	c #214681",
"l%	c #224C87",
"m%	c #22508E",
"n%	c #1F4D86",
"o%	c #181A22",
"p%	c #2A303E",
"q%	c #224379",
"r%	c #203E72",
"s%	c #1F3E74",
"t%	c #1E4076",
"u%	c #213F78",
"v%	c #214279",
"w%	c #204077",
"x%	c #214178",
"y%	c #214179",
"z%	c #203F75",
"A%	c #1E4883",
"B%	c #1E4C87",
"C%	c #1E4D88",
"D%	c #183A63",
"E%	c #202028",
"F%	c #505063",
"G%	c #333645",
"H%	c #1F3E6E",
"I%	c #1F4076",
"J%	c #204074",
"K%	c #204985",
"L%	c #20508E",
"M%	c #20518E",
"N%	c #162A43",
"O%	c #2F2F39",
"P%	c #3E4050",
"Q%	c #1E3969",
"R%	c #224076",
"S%	c #214075",
"T%	c #1E3E6F",
"U%	c #1E3F73",
"V%	c #1E4077",
"W%	c #1F4177",
"X%	c #1E4680",
"Y%	c #1E4B88",
"Z%	c #1F4D8A",
"`%	c #161C27",
" &	c #32323E",
".&	c #4C4D5E",
"+&	c #152947",
"@&	c #1F447D",
"#&	c #1F427A",
"$&	c #203F77",
"%&	c #204178",
"&&	c #1F4884",
"*&	c #204D8A",
"=&	c #204E8C",
"-&	c #1A3D6E",
";&	c #1E1E24",
">&	c #29384F",
",&	c #1C4073",
"'&	c #1B3562",
")&	c #1D366A",
"!&	c #203A70",
"~&	c #223E77",
"{&	c #203D74",
"]&	c #20437C",
"^&	c #1F4680",
"/&	c #1B2437",
"(&	c #26262F",
"_&	c #3B3B48",
":&	c #494A5A",
"<&	c #323847",
"[&	c #333544",
"}&	c #2D2E3A",
"|&	c #232A3F",
"1&	c #222A43",
"2&	c #222D47",
"3&	c #1F2B44",
"4&	c #243250",
"5&	c #212C47",
"6&	c #1D202D",
"7&	c #292830",
"8&	c #282831",
"9&	c #393947",
"0&	c #34343F",
"a&	c #383844",
"b&	c #373744",
"c&	c #434353",
"d&	c #4E4E5F",
". . . . . . . . . . . . . . . . . . . . . . . . . . . . . . . . . . . . . . . . . . . . . . . . . . . . . . . . . . . . . . . . ",
". . . . . . . . . . . . . . . . . . . . . . . . . . . . . . . . . . . . . . . . . . . . . . . . . . . . . . . . . . . . . . . . ",
". . . . . . . . . . . . . . . . . . . . . . . . . . . . . . . . . . . . . . . . . . . . . . . . . . . . . . . . . . . . . . . . ",
". . . . . . . . . . . . . . . . . . . . . . . . . . . . . . . . . . . . . . . . . . . . . . . . . . . . . . . . . . . . . . . . ",
". . . . . . . . . . . . . . . . . . . . . . . . . . . . . . . . . . . . . . . . . . . . . . . . . . . . . . . . . . . . . . . . ",
". . . . . . . . . . . . . . . . . . . . . . . . . . . . . . . . . . . . . . . . . . . . . . . . . . . . . . . . . . . . . . . . ",
". . . . . . . . . . . . . . . . . . . . . . . . . . . . . . . . . . . . . . . . . . . . . . . . . . . . . . . . . . . . . . . . ",
". . . . . . . . . . . . . . . . . . . . . . . . . . . . . . . . . . . . . . . . . . . . . . . . . . . . . . . . . . . . . . . . ",
". . . . . . . . . . . . . . . . . . . . . . . . . . . . . . . . . . . . . . . . . . . . . . . . . . . . . . . . . . . . . . . . ",
". . . . . . . . . . . . . . . . . . . . . . . . . . . . . . . . . . . . . . . . . . . . . . . . . . . . . . . . . . . . . . . . ",
". . . . . . . . . . . . . . . . . . . . . . . . . . . . . . . . . . . . . . . . . . . . . . . . . . . . . . . . . . . . . . . . ",
". . . . . . . . . . . . . . . . . . . . . . . . . . . . . . . . . . . . . . . . . . . . . . . . . . . . . . . . . . . . . . . . ",
". . . . . . . . . . . . . . . . . . . . . . . . . . . . . . . . . . . . . . . . . . . . . . . . . . . . . . . . . . . . . . . . ",
". . . . . . . . . . . . . . . . . . . . . . . . . . . . . . . . . . . . . . . . . . . . . . . . . . . . . . . . . . . . . . . . ",
". . . . . . . . . . . . . . . . . . . . . . . . . . . . . . . . . . . . . . . . . . . . . . . . . . . . . . . . . . . . . . . . ",
". . . . . . . . . . . . . . . . . . . . . . . . . . . . . . . . . . . . . . . . . . . . . . . . . . . . . . . . . . . . . . . . ",
". . . . . . . . . . . . . . . . . . . . . . . . . . . . . . . . . . . . . . . . . . . . . . . . . . . . . . . . . . . . . . . . ",
". . . . . . . . . . . . . . . . . . . . . . . . . . . . . . . . . . . . . . . . . . . . . . . . . . . . . . . . . . . . . . . . ",
". . . . . . . . . . . . . . . . . . . . . . . . . . . . . + + + @ @ @ @ @ + + + + . . . . . . . . . . . . . . . . . . . . . . . ",
". . . . . . . . . . . . . . . . . . . . . . . . . + + + @ @ # $ $ % % % $ $ & # @ + + . . . . . . . . . . . . . . . . . . . . . ",
". . . . . . . . . . . . . . . . . . . . . . . . + + @ & $ % * = - ; > , ' ) ! ~ $ # @ + . . . . . . . . . . . . . . . . . . . . ",
". . . . . . . . . . . . . . . . . . . . . . . + @ & { ~ ) , ] ^ / ( _ : < [ } * ) | & @ + + . . . . . . . . . . . . . . . . . . ",
". . . . . . . . . . . . . . . . . . . . . . + @ $ 1 2 3 4 4 5 6 7 8 9 0 a b c d e , ~ $ @ + + . . . . . . . . . . . . . . . . . ",
". . . . . . . . . . . . . . . . . . . . . . + # , f g h i j k l m n o p q r s t u v * ! $ @ + + . . . . . . . . . . . . . . . . ",
". . . . . . . . . . . . . . . . . . . . . + @ $ w x y z A B C D E F G H I J K L M N w * ! $ @ + . . . . . . . . . . . . . . . . ",
". . . . . . . . . . . . . . . . . . . . . + @ % O P Q R S T U V W X Y Z `  ...+.@.#.$.w * ! $ @ + . . . . . . . . . . . . . . . ",
". . . . . . . . . . + @ & @ + . . . . . . + # ~ %.&.*.=.-.;.>.,.'.).!.~.{.].^./.(._.:.<.v , | # + + @ # # [.+ . . . . . . . . . ",
". . . . . . . . + & ! }.|.' 1.[.. . . . . + & ! 2.3.4.5.6.7.8.9.0.a.b.c.d.e.f.g.h.i.j.N O } ! $ @ k.l.m.* ) 1.@ + . . . . . . . ",
". . . . . . + & > n.o.p.q.u r.~ $ & & & 1.| ! s.t.u.v.w.x.y.z.A.B.C.D.E.F.G.H.I.J.K.l.t.L.d s.! ! , M.N.O.P.v , % @ + . . . . . ",
". . . . . @ s.Q.R.S.T.U.V.W.X.Y.Z.`. +Z.Z..+++@+#+$+%+&+*+=+5.-+;+>+,+'+)+!+~+{+]+^+/+(+_+:+<+[+}+|+1+2+3+4+5+6+7+) & + . . . . ",
". . . . + $.8+9+0+a+b+c+c+d+e+e+e+e+e+f+g+h+i+j+k+l+m+n+o+p+w.q+;+r+s+t+u+v+w+x+y+z+A+B+C+D+E+F+G+H+I+a+b+J+K+L+M+N+O+@ . . . . ",
". . . . + ~ P+Q+R+S+T+U+V+W+X+Y+Z+`+ @ @.@+@@@#@$@%@&@*@=@-@;@>@,@'@)@!@~@{@]@^@/@(@_@:@<@[@}@|@1@2@3@4@4@5@6@7@8@9@, & 0@. . . ",
". . . . + 1.r.a@b@c@d@3@e@f@g@j.h@:.i@j@k@l@m@n@o@p@q@r@s@t@u@v@w@x@y@z@A@B@C@D@E@F@G@H@I@J@j.K@L@8@M@N@O@W+P@Q@h@d O+@ . . . . ",
". . . . . @ | r.O i@R@S@T@U@t d V@} W@7+X@Y@Z@`@ #.#+#@###$#~@%#&#*#=#-#;#>#,#'#)#!#H@~#{#t O ]#]#^#/#(#_#Q@j.:#v ) & + . . . . ",
". . . . . . + & ! r.<#:#[#u r.~ $ & | ! s.}#|#1#2#3#4#;@5#6#7#8#9#0#a#~@b#c#d#J.e#f#g#h#N X@* ! ~ ' w a@c 9@v , % @ + . . . . . ",
". . . . . . . . + & ~ , * ' 1.[.. . @ % ; i#j#k#l#m#n#@#o#p#q#r#s#t#u#v#w#x#'.y#z#A#K B#a@V@O+$ @ # ! > * ) 1.@ + . . . . . . . ",
". . . . . . . . . . + @ & @ + . . . @ % ; C#D#E#F#G#H#I#J#K#L#M#N#O#P#Q#R#S#T#U#V#W#I@t._ e ! & + + @ # # [.+ . . . . . . . . . ",
". . . . . . . . . . . . . . . . . . @ $ ; X#Y#Z#`# $.$+$@$#$$$N#%$#$$$t#&$*$=$-$;$>$~#L@<.} ! # + . . . . . . . . . . . . . . . ",
". . . . . . . . . . . . . . . . . . @ $ ' V@,$'$)$ $!$~${$]$^$/$($_$N#:$<$[$}$|$1$2$3$4$u r.~ @ + . . . . . . . . . . . . . . . ",
". . . . . . . . . . . . . . . . . . + $ ) V@5$6$7$8$9$0$a$b$c${$d$e$$$N#f$g$h$i$j$P@l.h@O * ~ @ + . . . . . . . . . . . . . . . ",
". . . . . . . . . . . . . . . . . . + & ! e k$l$m$n$o$p$^$q$#$$$$$($q$O#r$s$t$u$v$..s :.N+> % @ + . . . . . . . . . . . . . . . ",
". . . . . . . . . . . . . . . . . . + # ~ w$x$y$z$A$B$C$D$E$:$F$$$G$H$G#I$J$K$L$M$N$J@N d , % @ . . . . . . . . . . . . . . . . ",
". . . . . . . . . . . . . . . . . . + @ | * O$P$Q$R$S$T$U$V$W$X$Y$Z$n$`$ %.%a$+%^.@%8@[#w ' $ @ . . . . . . . . . . . . . . . . ",
". . . . . . . . . . . . . . . . . . . @ $ ; w #%$%%%&%*%=%-%;%>%,%'%)%!%~%{%]%^%/%K U@:#v ) $ + . . . . . . . . . . . . . . . . ",
". . . . . . . . . . . . . . . . . . . + $ O+V@(%_%:%<%[%6$}%|%W 1%2%3%4%5%6%7%8%W#9%t._ e ! & + . . . . . . . . . . . . . . . . ",
". . . . . . . . . . . . . . . . . . . + # ~ r.0%a%b%c%d%e%e%f%g%h%i%j%k%l%m%n%o%2$3$4$u w$~ # + . . . . . . . . . . . . . . . . ",
". . . . . . . . . . . . . . . . . . . + @ % , d p%q%r%s%t%u%v%w%x%y%z%A%B%C%D%E%N$s :.N+* | @ + . . . . . . . . . . . . . . . . ",
". . . . . . . . . . . . . . . . . . . . + $ O+F%G%H%<%Z@I%B.I%J%w%h%t%K%L%M%N%/%O%8@[#w ; $ @ + . . . . . . . . . . . . . . . . ",
". . . . . . . . . . . . . . . . . . . . + # ~ w$P%Q%R%&%S%T%U%V%W%W%j%X%Y%Z%`%>$ &t.^#V@O+$ + . . . . . . . . . . . . . . . . . ",
". . . . . . . . . . . . . . . . . . . . + @ % > .&+&@&#&$&w%I%%&%&I%&&*&=&-&;&..g@j@u r.~ # + . . . . . . . . . . . . . . . . . ",
". . . . . . . . . . . . . . . . . . . . . @ $ ' v >&,&'&)&!&~&{&%&E ]&^&|#/&(&K _&c d , % @ + . . . . . . . . . . . . . . . . . ",
". . . . . . . . . . . . . . . . . . . . . + & ! } :&<&[&}&|&1&2&3&4&5&6&7&8&O%s 4$9@V@O+$ @ . . . . . . . . . . . . . . . . . . ",
". . . . . . . . . . . . . . . . . . . . . + @ % ; w ^#j@9&0&K /#N$....N$@%I@s L@t d * ~ # + . . . . . . . . . . . . . . . . . . ",
". . . . . . . . . . . . . . . . . . . . . + @ $ ! r.d ^#:.L@_&h#a&s s b&h#B#j@:#<#} O+$ @ + . . . . . . . . . . . . . . . . . . ",
". . . . . . . . . . . . . . . . . . . . . . + @ $ O+r.w O _ t N c&:.:.:.N :#<.d } ' % @ + . . . . . . . . . . . . . . . . . . . ",
". . . . . . . . . . . . . . . . . . . . . . + + @ $ ! ; r.V@w d d&N+N+X@d w e * O+% & + + . . . . . . . . . . . . . . . . . . . ",
". . . . . . . . . . . . . . . . . . . . . . . + + @ $ % ~ O+' ; > > > > , ' ! ~ $ @ + + . . . . . . . . . . . . . . . . . . . . ",
". . . . . . . . . . . . . . . . . . . . . . . . + + @ @ # $ $ $ % % % % $ $ & # @ + + . . . . . . . . . . . . . . . . . . . . . ",
". . . . . . . . . . . . . . . . . . . . . . . . . . . + + + + @ @ @ @ @ @ + + + + . . . . . . . . . . . . . . . . . . . . . . . ",
". . . . . . . . . . . . . . . . . . . . . . . . . . . . . . . . . . . . . . . . . . . . . . . . . . . . . . . . . . . . . . . . ",
". . . . . . . . . . . . . . . . . . . . . . . . . . . . . . . . . . . . . . . . . . . . . . . . . . . . . . . . . . . . . . . . ",
". . . . . . . . . . . . . . . . . . . . . . . . . . . . . . . . . . . . . . . . . . . . . . . . . . . . . . . . . . . . . . . . ",
". . . . . . . . . . . . . . . . . . . . . . . . . . . . . . . . . . . . . . . . . . . . . . . . . . . . . . . . . . . . . . . . ",
". . . . . . . . . . . . . . . . . . . . . . . . . . . . . . . . . . . . . . . . . . . . . . . . . . . . . . . . . . . . . . . . "};
