/* XPM */
static char * audio_xpm[] = {
"18 20 41 1",
" 	c None",
".	c #181C18",
"+	c #393839",
"@	c #202020",
"#	c #8B898B",
"$	c #949594",
"%	c #BDBEBD",
"&	c #A4A1A4",
"*	c #D5D2D5",
"=	c #DEDADE",
"-	c #626562",
";	c #ACAEAC",
">	c #DEDEDE",
",	c #EEEAEE",
"'	c #EEEEEE",
")	c #ACAAAC",
"!	c #313031",
"~	c #E6E6E6",
"{	c #575757",
"]	c #DCDAD5",
"^	c #E6E2E6",
"/	c #000000",
"(	c #DAD8D5",
"_	c #D5D6D5",
":	c #CDCECD",
"<	c #313431",
"[	c #181818",
"}	c #C5C6C5",
"|	c #CDCACD",
"1	c #C5C2C5",
"2	c #414441",
"3	c #292829",
"4	c #BDBABD",
"5	c #B4B6B4",
"6	c #B4B2B4",
"7	c #080C08",
"8	c #838583",
"9	c #202420",
"0	c #949194",
"a	c #8B8D8B",
"b	c #838183",
"                  ",
"                  ",
"          .+      ",
"         @#+      ",
"        @$%+      ",
"       @&*=+      ",
"   ++-@;>,'+ ++   ",
"   );!%,',~+  +{  ",
"   ]]+,~^>=/+  +  ",
"   ](+>=_*:<[  +  ",
"   :}<*:|}123+ +  ",
"   %4!}1%45+[  +  ",
"   66!%56667+  +  ",
"   88906666+  +   ",
"   ++-.a666+ +    ",
"       @066+      ",
"        @a;+      ",
"         @b+      ",
"          7+      ",
"                  "};
