/* XPM */
static char * dialog_warning_xpm[] = {
"48 48 408 2",
"  	c None",
". 	c #5D5D72",
"+ 	c #615669",
"@ 	c #8B1C23",
"# 	c #9E0203",
"$ 	c #9C0506",
"% 	c #802C36",
"& 	c #5D5B70",
"* 	c #5D5C71",
"= 	c #941115",
"- 	c #C03132",
"; 	c #E06B6B",
"> 	c #DC6464",
", 	c #AE1D1E",
"' 	c #812B35",
") 	c #753A47",
"! 	c #AC1A1B",
"~ 	c #E26F6F",
"{ 	c #D01515",
"] 	c #D42828",
"^ 	c #DE6666",
"/ 	c #A00707",
"( 	c #645265",
"_ 	c #5E5B6F",
": 	c #9B0809",
"< 	c #D86060",
"[ 	c #D52D2D",
"} 	c #CC0000",
"| 	c #DB4C4C",
"1 	c #C33939",
"2 	c #8A1F26",
"3 	c #773542",
"4 	c #B32A2A",
"5 	c #E06363",
"6 	c #CC0101",
"7 	c #CF0F0F",
"8 	c #E06868",
"9 	c #A20B0C",
"0 	c #684D5E",
"a 	c #5F596D",
"b 	c #9C0608",
"c 	c #DB6464",
"d 	c #D32424",
"e 	c #D94040",
"f 	c #CA3F3F",
"g 	c #8F181D",
"h 	c #7D313C",
"i 	c #B82E2F",
"j 	c #DF5E5E",
"k 	c #D25C5C",
"l 	c #CD1B1B",
"m 	c #CE0A0A",
"n 	c #DF6464",
"o 	c #A51112",
"p 	c #6C4757",
"q 	c #60576B",
"r 	c #9D0607",
"s 	c #DD6868",
"t 	c #D21E1E",
"u 	c #CE1919",
"v 	c #DAD4D4",
"w 	c #D69090",
"x 	c #D73636",
"y 	c #CD4343",
"z 	c #951115",
"A 	c #BC3232",
"B 	c #DE5858",
"C 	c #D58484",
"D 	c #DBDBDB",
"E 	c #DBDADA",
"F 	c #CF2A2A",
"G 	c #CD0505",
"H 	c #DE5F5F",
"I 	c #A71718",
"J 	c #71404F",
"K 	c #625468",
"L 	c #A00708",
"M 	c #DE6B6B",
"N 	c #D11919",
"O 	c #CE1F1F",
"P 	c #DBD8D8",
"Q 	c #DCDCDC",
"R 	c #D89E9E",
"S 	c #D52C2C",
"T 	c #D14949",
"U 	c #990A0D",
"V 	c #85252E",
"W 	c #C03738",
"X 	c #DC5151",
"Y 	c #D68D8D",
"Z 	c #D13737",
"` 	c #CC0202",
" .	c #DD5757",
"..	c #AE1C1D",
"+.	c #763946",
"@.	c #A00909",
"#.	c #E06D6D",
"$.	c #D01313",
"%.	c #CF2626",
"&.	c #DBD9D9",
"*.	c #DDDDDD",
"=.	c #DAACAC",
"-.	c #D32323",
";.	c #D44D4D",
">.	c #9B0608",
",.	c #5F5A6E",
"'.	c #892028",
").	c #C33C3C",
"!.	c #DB4B4B",
"~.	c #D69595",
"{.	c #D24444",
"].	c #DC4E4E",
"^.	c #B22223",
"/.	c #7C313C",
"(.	c #674F61",
"_.	c #CF2D2D",
":.	c #DCDBDB",
"<.	c #DEDEDE",
"[.	c #DBB8B8",
"}.	c #D11A1A",
"|.	c #D75050",
"1.	c #61576A",
"2.	c #8D1B21",
"3.	c #C74141",
"4.	c #DA4545",
"5.	c #DFDFDF",
"6.	c #D35151",
"7.	c #DA4444",
"8.	c #B92627",
"9.	c #822932",
"0.	c #6A4B5C",
"a.	c #A40F10",
"b.	c #E06C6C",
"c.	c #CE0B0B",
"d.	c #D03535",
"e.	c #767676",
"f.	c #ADADAD",
"g.	c #DCC2C2",
"h.	c #CC0505",
"i.	c #D95151",
"j.	c #9F0607",
"k.	c #645365",
"l.	c #90161C",
"m.	c #CA4545",
"n.	c #D93F3F",
"o.	c #D8A6A6",
"p.	c #0A0A0A",
"q.	c #000000",
"r.	c #818181",
"s.	c #E0E0E0",
"t.	c #D55F5F",
"u.	c #D83B3B",
"v.	c #BE2B2C",
"w.	c #882129",
"x.	c #A61314",
"y.	c #E16B6B",
"z.	c #CE0808",
"A.	c #D03C3C",
"B.	c #151515",
"C.	c #8D8D8D",
"D.	c #DECCCC",
"E.	c #CD0A0A",
"F.	c #CE0C0C",
"G.	c #DA4F4F",
"H.	c #674E60",
"I.	c #941216",
"J.	c #CF4A4A",
"K.	c #D73838",
"L.	c #D8ADAD",
"M.	c #212121",
"N.	c #989898",
"O.	c #E1E1E1",
"P.	c #D76D6D",
"Q.	c #D63131",
"R.	c #C32E2E",
"S.	c #8E191F",
"T.	c #6F4251",
"U.	c #A81819",
"V.	c #E16969",
"W.	c #CD0606",
"X.	c #D14444",
"Y.	c #2D2D2D",
"Z.	c #A4A4A4",
"`.	c #E2E2E2",
" +	c #E1D5D5",
".+	c #CE1010",
"++	c #CD0707",
"@+	c #DA4C4C",
"#+	c #A30D0E",
"$+	c #6B4859",
"%+	c #970D10",
"&+	c #D25050",
"*+	c #D63333",
"=+	c #DAB6B6",
"-+	c #383838",
";+	c #B1B1B1",
">+	c #E3E3E3",
",+	c #D97B7B",
"'+	c #C73232",
")+	c #951216",
"!+	c #723E4C",
"~+	c #AC1C1D",
"{+	c #E06565",
"]+	c #CD0404",
"^+	c #D24D4D",
"/+	c #434343",
"(+	c #BDBDBD",
"_+	c #E3DCDC",
":+	c #CE1818",
"<+	c #DA4646",
"[+	c #704250",
"}+	c #990A0C",
"|+	c #D55454",
"1+	c #CC0303",
"2+	c #DBBDBD",
"3+	c #4F4F4F",
"4+	c #C8C8C8",
"5+	c #E4E4E4",
"6+	c #E5E5E5",
"7+	c #DB8989",
"8+	c #D32121",
"9+	c #CC3535",
"0+	c #980C0F",
"a+	c #B02122",
"b+	c #DF6161",
"c+	c #D35656",
"d+	c #5C5C5C",
"e+	c #D5D5D5",
"f+	c #E5E2E2",
"g+	c #D02222",
"h+	c #A91516",
"i+	c #5E5A6E",
"j+	c #9C0708",
"k+	c #D75959",
"l+	c #D42727",
"m+	c #DCC3C3",
"n+	c #686868",
"o+	c #E6E6E6",
"p+	c #DE9B9B",
"q+	c #CE3636",
"r+	c #9A0709",
"s+	c #7B343F",
"t+	c #B22626",
"u+	c #DE5C5C",
"v+	c #D45E5E",
"w+	c #A5A5A5",
"x+	c #696969",
"y+	c #6F6F6F",
"z+	c #E7E7E7",
"A+	c #E7E6E6",
"B+	c #D12F2F",
"C+	c #AF191A",
"D+	c #7A333F",
"E+	c #5F586D",
"F+	c #9C0607",
"G+	c #D95D5D",
"H+	c #CD0909",
"I+	c #DCC8C8",
"J+	c #D8D8D8",
"K+	c #A7A7A7",
"L+	c #C1C1C1",
"M+	c #E8E8E8",
"N+	c #E1AAAA",
"O+	c #7E2E39",
"P+	c #B82A2B",
"Q+	c #D46666",
"R+	c #242424",
"S+	c #030303",
"T+	c #9C9C9C",
"U+	c #E9E9E9",
"V+	c #D43D3D",
"W+	c #D63030",
"X+	c #B31B1B",
"Y+	c #61566A",
"Z+	c #9F0506",
"`+	c #DB6161",
" @	c #D11B1B",
".@	c #CD0C0C",
"+@	c #DCCDCD",
"@@	c #4B4B4B",
"#@	c #EAEAEA",
"$@	c #E4B8B8",
"%@	c #CF0D0D",
"&@	c #D33737",
"*@	c #9E0506",
"=@	c #625467",
"-@	c #BA2F2F",
";@	c #D56F6F",
">@	c #CFCFCF",
",@	c #6E6E6E",
"'@	c #EBEBEB",
")@	c #D64B4B",
"!@	c #D42929",
"~@	c #B81E1F",
"{@	c #88232B",
"]@	c #635467",
"^@	c #9F0708",
"/@	c #DD6363",
"(@	c #D01616",
"_@	c #DED3D3",
":@	c #AEAEAE",
"<@	c #555555",
"[@	c #757575",
"}@	c #E7C5C5",
"|@	c #CD0303",
"1@	c #CE0909",
"2@	c #D43535",
"3@	c #A10707",
"4@	c #654F61",
"5@	c #86242C",
"6@	c #C03334",
"7@	c #D67878",
"8@	c #ECECEC",
"9@	c #EDEDED",
"0@	c #D85959",
"a@	c #D32222",
"b@	c #BD1E1F",
"c@	c #655063",
"d@	c #A10909",
"e@	c #DE6565",
"f@	c #D01212",
"g@	c #CE1515",
"h@	c #DED6D6",
"i@	c #EAD1D1",
"j@	c #D43232",
"k@	c #A1090A",
"l@	c #6A4A5A",
"m@	c #892128",
"n@	c #C03030",
"o@	c #DA4848",
"p@	c #D35555",
"q@	c #EEEEEE",
"r@	c #EEECEC",
"s@	c #D43A3A",
"t@	c #D21D1D",
"u@	c #C11C1C",
"v@	c #90171D",
"w@	c #DB5C5C",
"x@	c #D11818",
"y@	c #D32F2F",
"z@	c #9B0709",
"A@	c #DA5B5B",
"B@	c #D22020",
"C@	c #D12D2D",
"D@	c #9D0506",
"E@	c #AF1E1F",
"F@	c #DB5959",
"G@	c #E06464",
"H@	c #E06666",
"I@	c #DF6060",
"J@	c #DF5D5D",
"K@	c #DE5B5B",
"L@	c #DE5959",
"M@	c #DD5656",
"N@	c #DD5454",
"O@	c #DD5353",
"P@	c #DC5050",
"Q@	c #DB4949",
"R@	c #D94343",
"S@	c #D94141",
"T@	c #D83E3E",
"U@	c #D83C3C",
"V@	c #D73939",
"W@	c #D73737",
"X@	c #D63434",
"Y@	c #D02B2B",
"Z@	c #AC1112",
"`@	c #812A34",
" #	c #832831",
".#	c #9D0405",
"+#	c #9F0000",
"@#	c #832730",
"##	c #5B5B70",
"$#	c #58586C",
"%#	c #565669",
"&#	c #535366",
"*#	c #515163",
"=#	c #4E4E60",
"-#	c #4C4C5D",
";#	c #4A4A5B",
">#	c #484858",
",#	c #464656",
"'#	c #454554",
")#	c #434353",
"!#	c #424251",
"~#	c #424250",
"{#	c #414150",
"]#	c #444454",
"^#	c #505063",
"/#	c #555569",
"(#	c #59596D",
"_#	c #5C5C71",
":#	c #5A5A6E",
"<#	c #57576B",
"[#	c #4F4F61",
"}#	c #4D4D5F",
"|#	c #49495A",
"1#	c #484859",
"2#	c #474758",
"3#	c #474757",
"4#	c #535365",
"5#	c #555568",
"6#	c #5A5A6F",
"7#	c #545467",
"8#	c #515164",
"9#	c #505062",
"0#	c #4E4E5F",
"a#	c #545468",
". . . . . . . . . . . . . . . . . . . . . . . . . . . . . . . . . . . . . . . . . . . . . . . . ",
". . . . . . . . . . . . . . . . . . . . . . . . . . . . . . . . . . . . . . . . . . . . . . . . ",
". . . . . . . . . . . . . . . . . . . . . . . . . . . . . . . . . . . . . . . . . . . . . . . . ",
". . . . . . . . . . . . . . . . . . . . . + @ # $ % & . . . . . . . . . . . . . . . . . . . . . ",
". . . . . . . . . . . . . . . . . . . . * = - ; > , ' . . . . . . . . . . . . . . . . . . . . . ",
". . . . . . . . . . . . . . . . . . . . ) ! ~ { ] ^ / ( . . . . . . . . . . . . . . . . . . . . ",
". . . . . . . . . . . . . . . . . . . _ : < [ } } | 1 2 . . . . . . . . . . . . . . . . . . . . ",
". . . . . . . . . . . . . . . . . . . 3 4 5 6 } } 7 8 9 0 . . . . . . . . . . . . . . . . . . . ",
". . . . . . . . . . . . . . . . . . a b c d } } } } e f g . . . . . . . . . . . . . . . . . . . ",
". . . . . . . . . . . . . . . . . . h i j } } k l } m n o p . . . . . . . . . . . . . . . . . . ",
". . . . . . . . . . . . . . . . . q r s t } u v w } } x y z . . . . . . . . . . . . . . . . . . ",
". . . . . . . . . . . . . . . . . ' A B } } C D E F } G H I J . . . . . . . . . . . . . . . . . ",
". . . . . . . . . . . . . . . . K L M N } O P D Q R } } S T U & . . . . . . . . . . . . . . . . ",
". . . . . . . . . . . . . . . . V W X } } Y D Q Q Q Z } `  ...+.. . . . . . . . . . . . . . . . ",
". . . . . . . . . . . . . . . ( @.#.$.} %.&.Q Q Q *.=.} } -.;.>.,.. . . . . . . . . . . . . . . ",
". . . . . . . . . . . . . . . '.).!.} } ~.Q Q Q *.*.*.{.} } ].^./.. . . . . . . . . . . . . . . ",
". . . . . . . . . . . . . . (.9 #.7 } _.:.Q Q *.*.*.<.[.` } }.|.$ 1.. . . . . . . . . . . . . . ",
". . . . . . . . . . . . . . 2.3.4.} } R Q Q *.*.*.<.<.5.6.} } 7.8.9.. . . . . . . . . . . . . . ",
". . . . . . . . . . . . . 0.a.b.c.} d.Q Q *.e.e.e.f.5.5.g.h.} $.i.j.k.. . . . . . . . . . . . . ",
". . . . . . . . . . . . . l.m.n.} } o.Q *.*.p.q.q.r.5.5.s.t.} } u.v.w.. . . . . . . . . . . . . ",
". . . . . . . . . . . . p x.y.z.} A.Q *.*.<.B.q.q.C.5.s.s.D.E.} F.G.@.H.. . . . . . . . . . . . ",
". . . . . . . . . . . . I.J.K.} 6 L.*.*.<.<.M.q.q.N.s.s.O.O.P.} } Q.R.S.. . . . . . . . . . . . ",
". . . . . . . . . . . T.U.V.W.} X.*.*.<.<.<.Y.q.q.Z.s.O.O.`. +.+} ++@+#+$+. . . . . . . . . . . ",
". . . . . . . . . . * %+&+*+} ` =+*.<.<.<.5.-+q.q.;+O.O.`.`.>+,+} } ] '+)+. . . . . . . . . . . ",
". . . . . . . . . . !+~+{+]+} ^+*.<.<.<.5.5./+q.q.(+O.`.`.>+>+_+:+} ]+<+o [+. . . . . . . . . . ",
". . . . . . . . . & }+|+[ } 1+2+<.<.<.5.5.5.3+q.q.4+`.`.>+>+5+6+7+} } 8+9+0+* . . . . . . . . . ",
". . . . . . . . . +.a+b+` } c+<.<.<.5.5.5.s.d+q.q.e+`.>+>+5+6+6+f+g+} ` e h+) . . . . . . . . . ",
". . . . . . . . i+j+k+l+} h.m+<.<.5.5.5.s.s.n+q.q.`.>+>+5+6+6+o+o+p+} } N q+r+i+. . . . . . . . ",
". . . . . . . . s+t+u+6 } v+<.<.5.5.5.s.s.O.w+x+y+>+>+5+6+6+o+o+z+A+B+} 6 K.C+D+. . . . . . . . ",
". . . . . . . E+F+G+8+} H+I+<.5.5.5.s.s.O.O.J+K+L+>+5+6+6+o+o+z+z+M+N+} } $.Z r q . . . . . . . ",
". . . . . . . O+P+ .} } Q+<.5.5.5.s.s.O.O.Q R+q.S+T+6+6+o+o+z+z+M+U+U+V+} } W+X+' . . . . . . . ",
". . . . . . Y+Z+`+ @} .@+@5.5.5.s.s.O.O.`.;+q.q.q.@@6+o+o+z+z+M+U+U+#@$@6 } %@&@*@=@. . . . . . ",
". . . . . . 9.-@X } } ;@5.5.5.s.s.O.O.`.`.>@p.q.q.,@o+o+z+z+M+U+U+#@#@'@)@} } !@~@{@. . . . . . ",
". . . . . ]@^@/@(@} .+_@5.s.s.s.O.O.`.`.>+5+:@<@[@<.o+z+z+M+U+U+#@#@'@'@}@|@} 1@2@3@4@. . . . . ",
". . . . . 5@6@!.} } 7@5.s.s.s.O.O.`.`.>+5+5+6+6+o+o+z+z+M+U+U+#@#@'@'@8@9@0@} } a@b@2.. . . . . ",
". . . . c@d@e@f@} g@h@s.s.s.O.O.`.`.>+5+5+6+6+o+o+z+M+M+U+U+#@#@'@'@8@9@9@i@++} G j@k@l@. . . . ",
". . . . m@n@o@} } p@s.s.s.O.O.`.`.>+5+5+6+6+o+o+z+M+M+U+U+#@#@'@'@8@9@9@q@r@s@} } t@u@v@. . . . ",
". . . . F+w@x@} } } } } } } } } } } } } } } } } } } } } } } } } } } } } } } } } } G y@# . . . . ",
". . . . z@A@B@G } } } } } } } } } } } } } } } } } } } } } } } } } } } } } } } } ` F.C@D@. . . . ",
". . . . ' E@F@G@H@{+5 b+I@j J@K@L@B M@N@O@X P@].| !.Q@o@<+7.R@S@n.T@U@u.V@W@x X@W+Y@Z@`@. . . . ",
". . . . &  #.#+#+#+#+#+#+#+#+#+#+#+#+#+#+#+#+#+#+#+#+#+#+#+#+#+#+#+#+#+#+#+#+#+#+#.#@#& . . . . ",
". . . . . . . . . ##$#%#&#*#=#-#;#>#,#'#)#!#~#{#{#{#~#!#)#]#,#>#;#-#=#^#&#/#(#_#. . . . . . . . ",
". . . . . . . . . . . :#<#/#&#*#[#}#-#;#|#1#>#2#3#3#>#>#|#;#-#}#[#*#4#5#<###. . . . . . . . . . ",
". . . . . . . . . . . . _#6#$#%#7#4#8#9#[#=#=#0#}#0#=#=#[#9#8#4#7#%#(###. . . . . . . . . . . . ",
". . . . . . . . . . . . . . . _###(#<#%#/#a#7#7#7#7#7#a#/#%#$#:###. . . . . . . . . . . . . . . ",
". . . . . . . . . . . . . . . . . . . . _#_#_#######_#_#. . . . . . . . . . . . . . . . . . . . ",
". . . . . . . . . . . . . . . . . . . . . . . . . . . . . . . . . . . . . . . . . . . . . . . . ",
". . . . . . . . . . . . . . . . . . . . . . . . . . . . . . . . . . . . . . . . . . . . . . . . "};
