/* XPM */
static char * emblem_unreadable_xpm[] = {
"14 14 27 1",
" 	c None",
".	c #000000",
"+	c #9F1918",
"@	c #A50202",
"#	c #A40000",
"$	c #A40100",
"%	c #A10B0B",
"&	c #B23130",
"*	c #C83232",
"=	c #DF6464",
"-	c #E06666",
";	c #C93232",
">	c #A30000",
",	c #CD0505",
"'	c #CC0000",
")	c #A50000",
"!	c #CD0404",
"~	c #D83C3C",
"{	c #D94040",
"]	c #D73636",
"^	c #FFFFFF",
"/	c #E98F8F",
"(	c #D63434",
"_	c #A40101",
":	c #A10000",
"<	c #A70000",
"[	c #A60000",
".+@########$%.",
"&*=--------=;>",
"@=,'''''''',=)",
"#-'!~''''{!'-#",
"#-']^/''/^('-#",
"#-''/^//^/''-#",
"#-'''/^^/'''-#",
"#-'''/^^/'''-#",
"#-''/^//^/''-#",
"#-'(^/''/^]'-#",
"#-'!{''''~!'-#",
"_=,'''''''',=)",
":;=--------=;<",
".[)########)[."};
