/* XPM */
static char * frei0r_xpm[] = {
"40 40 893 2",
"  	c #FEFEFE",
". 	c #FDFFFE",
"+ 	c #FBFFFE",
"@ 	c #FAFFFE",
"# 	c #F9FFFE",
"$ 	c #FDFFFC",
"% 	c #FEFEFC",
"& 	c #FFFEFA",
"* 	c #FFFEF9",
"= 	c #FFFEF8",
"- 	c #FDFEFE",
"; 	c #FFFDFE",
"> 	c #FFFDFD",
", 	c #FFFEFC",
"' 	c #FFFCFE",
") 	c #FFFCFF",
"! 	c #FFFDFF",
"~ 	c #FEFDFF",
"{ 	c #FFFEFE",
"] 	c #FEFDFE",
"^ 	c #FDFCFD",
"/ 	c #FDFDFD",
"( 	c #FEFDFD",
"_ 	c #FEFDFB",
": 	c #FDFCF9",
"< 	c #FEFCFB",
"[ 	c #FDFDFE",
"} 	c #FDFDFF",
"| 	c #FBFBFF",
"1 	c #FCFBFE",
"2 	c #FFFCFD",
"3 	c #F9FDFB",
"4 	c #F9FEFD",
"5 	c #F8FDFD",
"6 	c #F4FAF9",
"7 	c #FCFCFC",
"8 	c #FEFEFD",
"9 	c #F6FEF3",
"0 	c #EDF8EA",
"a 	c #EBF3EA",
"b 	c #F7FBF8",
"c 	c #F8FCFC",
"d 	c #FBFCFE",
"e 	c #FAF9FC",
"f 	c #FCFBFC",
"g 	c #F7FFFE",
"h 	c #D9E9E5",
"i 	c #CCE2DB",
"j 	c #EFFEFC",
"k 	c #FBFCFC",
"l 	c #FAFAFA",
"m 	c #FBFBFB",
"n 	c #FAFBFA",
"o 	c #D0E7D0",
"p 	c #698769",
"q 	c #5C745D",
"r 	c #9EAD9F",
"s 	c #F5FBF6",
"t 	c #FBFDFD",
"u 	c #FBFDFE",
"v 	c #F9FDFD",
"w 	c #FAFEFE",
"x 	c #F6FAF9",
"y 	c #FAFFFD",
"z 	c #FBFFFF",
"A 	c #FDFFFB",
"B 	c #F4FDFC",
"C 	c #698176",
"D 	c #40614E",
"E 	c #6D8A7B",
"F 	c #C9CECB",
"G 	c #FBFCFB",
"H 	c #FCFCF9",
"I 	c #FAFBFC",
"J 	c #DEE6E1",
"K 	c #5E805E",
"L 	c #345F39",
"M 	c #3C5F3E",
"N 	c #475C47",
"O 	c #CDD8CB",
"P 	c #F9FDFA",
"Q 	c #EFF5F2",
"R 	c #B8C5BC",
"S 	c #829186",
"T 	c #8B9890",
"U 	c #EDF9F2",
"V 	c #F9FFFD",
"W 	c #F5FFFB",
"X 	c #F9FFF8",
"Y 	c #FEFEF7",
"Z 	c #D3DED5",
"` 	c #4E664C",
" .	c #3F5D35",
"..	c #3D5E3F",
"+.	c #3B5145",
"@.	c #9AA9A2",
"#.	c #F6FAE7",
"$.	c #FEF9F5",
"%.	c #F9FAF2",
"&.	c #788B6E",
"*.	c #3F5430",
"=.	c #35563C",
"-.	c #385736",
";.	c #4E5633",
">.	c #A5A975",
",.	c #D9E1B3",
"'.	c #687B58",
").	c #375437",
"!.	c #365535",
"~.	c #48644A",
"{.	c #C6D8C4",
"].	c #FCFFF7",
"^.	c #FFFBFE",
"/.	c #F8FFFA",
"(.	c #A9BFAC",
"_.	c #3F5F3A",
":.	c #3A5235",
"<.	c #344B31",
"[.	c #284124",
"}.	c #505C45",
"|.	c #B8B079",
"1.	c #F4D897",
"2.	c #EAC077",
"3.	c #B2913A",
"4.	c #806D2D",
"5.	c #3C411C",
"6.	c #43412E",
"7.	c #9A7C26",
"8.	c #E1B83A",
"9.	c #EACB42",
"0.	c #8E852C",
"a.	c #324729",
"b.	c #305034",
"c.	c #36553D",
"d.	c #A9BCAB",
"e.	c #FBFEFB",
"f.	c #FCFCFE",
"g.	c #FEFBFC",
"h.	c #A6BDA9",
"i.	c #526632",
"j.	c #635E23",
"k.	c #816F29",
"l.	c #8E7A2A",
"m.	c #816114",
"n.	c #D6A034",
"o.	c #DC8617",
"p.	c #DF7919",
"q.	c #E88522",
"r.	c #E49429",
"s.	c #957419",
"t.	c #48301A",
"u.	c #D3A533",
"v.	c #ED9E27",
"w.	c #DB821A",
"x.	c #C67E35",
"y.	c #8C712F",
"z.	c #484E19",
"A.	c #344931",
"B.	c #A1AEA7",
"C.	c #F9FBFD",
"D.	c #FBFCFF",
"E.	c #FEFEFF",
"F.	c #FDFEF9",
"G.	c #F9FDFC",
"H.	c #B9C19F",
"I.	c #A29227",
"J.	c #D6A224",
"K.	c #DB971F",
"L.	c #DE9E2C",
"M.	c #D49121",
"N.	c #DA871C",
"O.	c #D26318",
"P.	c #BE4313",
"Q.	c #D86626",
"R.	c #CC6D12",
"S.	c #D2AB27",
"T.	c #64440F",
"U.	c #CA8B21",
"V.	c #C55E25",
"W.	c #B54C1C",
"X.	c #BB571F",
"Y.	c #D88D27",
"Z.	c #A99433",
"`.	c #363F21",
" +	c #949FA0",
".+	c #FAFDFD",
"++	c #FDFAFF",
"@+	c #FFFFFF",
"#+	c #FCFDFF",
"$+	c #FAFEF9",
"%+	c #FAFDFE",
"&+	c #F9EEC4",
"*+	c #E6A62F",
"=+	c #CE6B06",
"-+	c #C76217",
";+	c #D0771F",
">+	c #D68319",
",+	c #C26314",
"'+	c #D3602A",
")+	c #CC5516",
"!+	c #EA8524",
"~+	c #C16D1B",
"{+	c #D4B738",
"]+	c #624616",
"^+	c #DDA430",
"/+	c #C66815",
"(+	c #DF7B2E",
"_+	c #C0581E",
":+	c #D6811B",
"<+	c #E7C44B",
"[+	c #4D4D1A",
"}+	c #B9C4BB",
"|+	c #F9FCFA",
"1+	c #FEF7FF",
"2+	c #FCFBFD",
"3+	c #FCFDFC",
"4+	c #FBFDF8",
"5+	c #FEE8AF",
"6+	c #D06D18",
"7+	c #C24E1B",
"8+	c #BA6225",
"9+	c #D0731F",
"0+	c #EFA120",
"a+	c #C97110",
"b+	c #C7610D",
"c+	c #D86C17",
"d+	c #DF7628",
"e+	c #C66E22",
"f+	c #B08622",
"g+	c #381602",
"h+	c #B78616",
"i+	c #F5B11F",
"j+	c #E58F0F",
"k+	c #C66319",
"l+	c #B55B0D",
"m+	c #ECAD28",
"n+	c #C5AA3C",
"o+	c #F3F1CA",
"p+	c #F7FCFA",
"q+	c #FEFAFD",
"r+	c #FDFCE0",
"s+	c #EFC869",
"t+	c #CA5D0D",
"u+	c #E17A2E",
"v+	c #DD9820",
"w+	c #E09B1F",
"x+	c #E3A506",
"y+	c #F2AF1D",
"z+	c #F7AE18",
"A+	c #E39015",
"B+	c #B45E1D",
"C+	c #AE5522",
"D+	c #C98325",
"E+	c #AE6123",
"F+	c #CA771E",
"G+	c #E6981A",
"H+	c #EEA90F",
"I+	c #BF7112",
"J+	c #D57725",
"K+	c #EF981A",
"L+	c #E7A52B",
"M+	c #EFC77B",
"N+	c #D8CAA9",
"O+	c #B7BCA4",
"P+	c #CCD3C9",
"Q+	c #ECF3ED",
"R+	c #FCFEFE",
"S+	c #FDFEFA",
"T+	c #F8FCF9",
"U+	c #FAFAFB",
"V+	c #F8FBD4",
"W+	c #EAD147",
"X+	c #E48D17",
"Y+	c #DA721C",
"Z+	c #D26C13",
"`+	c #F5BF1E",
" @	c #E8991C",
".@	c #DE7F1C",
"+@	c #DE8111",
"@@	c #D07623",
"#@	c #A55017",
"$@	c #C16720",
"%@	c #E07E28",
"&@	c #CB530D",
"*@	c #DD6E25",
"=@	c #DE7C1E",
"-@	c #F2A821",
";@	c #996012",
">@	c #D49138",
",@	c #CF7E17",
"'@	c #B34C20",
")@	c #D4621B",
"!@	c #DF9527",
"~@	c #998C38",
"{@	c #3F5434",
"]@	c #546F5A",
"^@	c #AEC3BA",
"/@	c #F0F8F7",
"(@	c #FDFEFF",
"_@	c #FAFFFF",
":@	c #FCFFFE",
"<@	c #FCFEFF",
"[@	c #F8FFFC",
"}@	c #F6FDF6",
"|@	c #DFEDE5",
"1@	c #CAD8CD",
"2@	c #C1D0B4",
"3@	c #D9DA5D",
"4@	c #F6CA3D",
"5@	c #E49E40",
"6@	c #D27E1D",
"7@	c #F5B521",
"8@	c #D36D17",
"9@	c #D25D27",
"0@	c #C15D20",
"a@	c #B35E1B",
"b@	c #EB9E26",
"c@	c #CF7D14",
"d@	c #BE5816",
"e@	c #C94D20",
"f@	c #C04D1C",
"g@	c #AE480F",
"h@	c #EDAB26",
"i@	c #AA7E18",
"j@	c #B0681A",
"k@	c #E7951F",
"l@	c #B4491D",
"m@	c #CD5026",
"n@	c #DA760D",
"o@	c #C1A324",
"p@	c #3C5029",
"q@	c #334E38",
"r@	c #4C6358",
"s@	c #E2EAE9",
"t@	c #F8FFFF",
"u@	c #F5FFFE",
"v@	c #D7E5DC",
"w@	c #899F8B",
"x@	c #567657",
"y@	c #394F2B",
"z@	c #736D29",
"A@	c #D4AD3A",
"B@	c #EBA930",
"C@	c #E7A932",
"D@	c #D1911F",
"E@	c #E79A24",
"F@	c #C05110",
"G@	c #C1441E",
"H@	c #A03613",
"I@	c #944119",
"J@	c #DB9B26",
"K@	c #D58A22",
"L@	c #CB6526",
"M@	c #D75E30",
"N@	c #BA481A",
"O@	c #AA441E",
"P@	c #D6963A",
"Q@	c #BA9323",
"R@	c #D0852A",
"S@	c #E58010",
"T@	c #DA761F",
"U@	c #CE5B17",
"V@	c #D7690F",
"W@	c #D5AF2E",
"X@	c #384821",
"Y@	c #324A35",
"Z@	c #5A6E64",
"`@	c #EFF5F5",
" #	c #F9FEFE",
".#	c #F7FFFF",
"+#	c #C4D3CE",
"@#	c #6D8673",
"##	c #3F5D40",
"$#	c #486C44",
"%#	c #54611A",
"&#	c #E7BD3A",
"*#	c #E48314",
"=#	c #D36816",
"-#	c #E99D29",
";#	c #F0B231",
">#	c #D78023",
",#	c #D06B27",
"'#	c #C65624",
")#	c #B94E24",
"!#	c #A85A27",
"~#	c #A37730",
"{#	c #A56B21",
"]#	c #AE5216",
"^#	c #BA511E",
"/#	c #D1721C",
"(#	c #D0812A",
"_#	c #9B6B36",
":#	c #442E08",
"<#	c #A07B36",
"[#	c #DA902D",
"}#	c #E5981B",
"|#	c #E4851A",
"1#	c #D76B09",
"2#	c #EDC644",
"3#	c #404E27",
"4#	c #364C38",
"5#	c #A6B7AF",
"6#	c #FFFEFF",
"7#	c #FEFFFF",
"8#	c #F3FBFA",
"9#	c #809188",
"0#	c #49634B",
"a#	c #436341",
"b#	c #435F3E",
"c#	c #85882C",
"d#	c #EDA62A",
"e#	c #D85924",
"f#	c #BA3D1C",
"g#	c #C25812",
"h#	c #EFA523",
"i#	c #CA7124",
"j#	c #AB5316",
"k#	c #B85822",
"l#	c #BA5A28",
"m#	c #A3652E",
"n#	c #7A6846",
"o#	c #7F5D2A",
"p#	c #DC9637",
"q#	c #D88B21",
"r#	c #E49D26",
"s#	c #C79229",
"t#	c #2B1507",
"u#	c #1D1B0E",
"v#	c #504C2B",
"w#	c #885E1C",
"x#	c #D18B26",
"y#	c #F19F29",
"z#	c #E99618",
"A#	c #A58E1F",
"B#	c #354320",
"C#	c #657966",
"D#	c #E9F6F1",
"E#	c #FCFDFE",
"F#	c #FFFBFF",
"G#	c #C6D3C9",
"H#	c #40593F",
"I#	c #3A5B34",
"J#	c #3C5732",
"K#	c #676612",
"L#	c #DD8C17",
"M#	c #CB4817",
"N#	c #DD612B",
"O#	c #E37129",
"P#	c #DC851C",
"Q#	c #CB831A",
"R#	c #DB8D30",
"S#	c #CD7C14",
"T#	c #C8842C",
"U#	c #9D7B39",
"V#	c #515531",
"W#	c #947C2F",
"X#	c #CF8B16",
"Y#	c #DA8E1F",
"Z#	c #E2981F",
"`#	c #CC972A",
" $	c #27150E",
".$	c #1A150D",
"+$	c #4A4A35",
"@$	c #89643C",
"#$	c #C35D23",
"$$	c #D2671A",
"%$	c #EE9A25",
"&$	c #CABA3A",
"*$	c #434F2B",
"=$	c #C1D2C1",
"-$	c #F1FBF7",
";$	c #FFFAFF",
">$	c #FCFEFD",
",$	c #F7FDF7",
"'$	c #B3C3B2",
")$	c #556A50",
"!$	c #4D6130",
"~$	c #8C8224",
"{$	c #D87A1D",
"]$	c #DB4C2F",
"^$	c #D34E21",
"/$	c #EA7A31",
"($	c #D37713",
"_$	c #CD8812",
":$	c #D99924",
"<$	c #F1B41A",
"[$	c #BB8A14",
"}$	c #695420",
"|$	c #3A3119",
"1$	c #B69533",
"2$	c #C6701F",
"3$	c #B85424",
"4$	c #C16610",
"5$	c #DA922E",
"6$	c #57381D",
"7$	c #2A231C",
"8$	c #535036",
"9$	c #92602A",
"0$	c #CB511C",
"a$	c #D14726",
"b$	c #D35D10",
"c$	c #F7CB2D",
"d$	c #555429",
"e$	c #434D3A",
"f$	c #85938B",
"g$	c #E4EDEA",
"h$	c #FDFCFC",
"i$	c #FAFAF9",
"j$	c #DDDDDD",
"k$	c #7C805E",
"l$	c #B7AA36",
"m$	c #E49C21",
"n$	c #DE7011",
"o$	c #DE6F15",
"p$	c #C66419",
"q$	c #E6941E",
"r$	c #DA8D19",
"s$	c #DE9B23",
"t$	c #EDB21F",
"u$	c #EDC51F",
"v$	c #B8A41D",
"w$	c #8E6323",
"x$	c #A6682C",
"y$	c #AD4C1C",
"z$	c #B03F2F",
"A$	c #AF4524",
"B$	c #C25D30",
"C$	c #774A13",
"D$	c #3C3C22",
"E$	c #6A6323",
"F$	c #CE8C38",
"G$	c #C24716",
"H$	c #C43A24",
"I$	c #D8571E",
"J$	c #F4AE28",
"K$	c #604D25",
"L$	c #424131",
"M$	c #2F4135",
"N$	c #627C6A",
"O$	c #D7E5D6",
"P$	c #FCFEF6",
"Q$	c #F8F8F8",
"R$	c #F1F8F1",
"S$	c #E3E5AE",
"T$	c #FCE578",
"U$	c #F6CE37",
"V$	c #E2AE35",
"W$	c #A36916",
"X$	c #E6B32C",
"Y$	c #A55012",
"Z$	c #C25619",
"`$	c #B24D1B",
" %	c #BF820A",
".%	c #FBDB29",
"+%	c #C3881C",
"@%	c #92401F",
"#%	c #B24E21",
"$%	c #C15437",
"%%	c #AB3A1E",
"&%	c #CA6514",
"*%	c #C69932",
"=%	c #282708",
"-%	c #51541B",
";%	c #C89433",
">%	c #CD5A21",
",%	c #EC693F",
"'%	c #E16B22",
")%	c #C37D2F",
"!%	c #493C24",
"~%	c #383D2F",
"{%	c #334A36",
"]%	c #375537",
"^%	c #768C6E",
"/%	c #ECF2E3",
"(%	c #F8FDFE",
"_%	c #F9FDF9",
":%	c #F6F7D8",
"<%	c #9C9A4A",
"[%	c #64501A",
"}%	c #75531B",
"|%	c #DCB322",
"1%	c #BE5125",
"2%	c #BF411C",
"3%	c #D86934",
"4%	c #C26216",
"5%	c #E49834",
"6%	c #E8B325",
"7%	c #B57118",
"8%	c #AC4F1C",
"9%	c #B1481F",
"0%	c #B04522",
"a%	c #CE7D07",
"b%	c #E2BA29",
"c%	c #312809",
"d%	c #586334",
"e%	c #916B2A",
"f%	c #C36320",
"g%	c #CD6807",
"h%	c #E99F24",
"i%	c #7C5D1F",
"j%	c #41422D",
"k%	c #354230",
"l%	c #355034",
"m%	c #46663F",
"n%	c #5B7351",
"o%	c #C9D2C3",
"p%	c #FCFDFB",
"q%	c #FEFCF8",
"r%	c #FBFCF8",
"s%	c #B4BBBC",
"t%	c #3A4033",
"u%	c #41342E",
"v%	c #5A3F16",
"w%	c #E6BE35",
"x%	c #D46112",
"y%	c #B7391D",
"z%	c #C34816",
"A%	c #DE7C1A",
"B%	c #BB7323",
"C%	c #BE8F16",
"D%	c #F4D02B",
"E%	c #D39715",
"F%	c #CF7A1A",
"G%	c #BE6913",
"H%	c #F3C02B",
"I%	c #D2AA27",
"J%	c #876125",
"K%	c #716938",
"L%	c #7C702C",
"M%	c #CBA633",
"N%	c #F4D23C",
"O%	c #D0BD3C",
"P%	c #4A4C1E",
"Q%	c #3A462C",
"R%	c #35482F",
"S%	c #375234",
"T%	c #4A6643",
"U%	c #879980",
"V%	c #F2F7F3",
"W%	c #FEFAFA",
"X%	c #FCFCF2",
"Y%	c #707B6F",
"Z%	c #323B2C",
"`%	c #3E352C",
" &	c #48321E",
".&	c #8F6C1C",
"+&	c #DE8D1D",
"@&	c #C65F09",
"#&	c #D56F10",
"$&	c #EEB00E",
"%&	c #DCB51E",
"&&	c #CA9720",
"*&	c #C99F17",
"=&	c #F4D840",
"-&	c #E9B223",
";&	c #F2BB27",
">&	c #E5B82D",
",&	c #95551A",
"'&	c #C1732E",
")&	c #B48B3B",
"!&	c #6A7132",
"~&	c #7B8947",
"{&	c #6E7534",
"]&	c #484618",
"^&	c #374121",
"/&	c #3B4A2E",
"(&	c #394A34",
"_&	c #516452",
":&	c #9AAB97",
"<&	c #EBF4E7",
"[&	c #FBFCFD",
"}&	c #FCFDFD",
"|&	c #F6FEF6",
"1&	c #536757",
"2&	c #354430",
"3&	c #3B3B2A",
"4&	c #3F3931",
"5&	c #453A1A",
"6&	c #B78F31",
"7&	c #F3C332",
"8&	c #F7CF1B",
"9&	c #FDE015",
"0&	c #ECBC1D",
"a&	c #E9AF14",
"b&	c #BD8615",
"c&	c #BD9C52",
"d&	c #D2A642",
"e&	c #CB7720",
"f&	c #B75B19",
"g&	c #984025",
"h&	c #B24C21",
"i&	c #AE6E28",
"j&	c #7E8453",
"k&	c #C8DCC2",
"l&	c #D0DDCB",
"m&	c #A5A6A9",
"n&	c #838E87",
"o&	c #8E9C88",
"p&	c #ABB7AD",
"q&	c #D9E5E3",
"r&	c #F5FCF8",
"s&	c #F9FBF5",
"t&	c #FDFAF9",
"u&	c #F8FFF8",
"v&	c #F1FFF2",
"w&	c #64796A",
"x&	c #40513F",
"y&	c #384430",
"z&	c #354030",
"A&	c #3A4431",
"B&	c #49411D",
"C&	c #A38D1A",
"D&	c #FAE425",
"E&	c #DEA317",
"F&	c #BB5808",
"G&	c #DA800D",
"H&	c #F6CF27",
"I&	c #E9D04A",
"J&	c #E7B14C",
"K&	c #AC3613",
"L&	c #C44B32",
"M&	c #A13419",
"N&	c #CB5324",
"O&	c #D08C25",
"P&	c #767130",
"Q&	c #A4B0A2",
"R&	c #F1FAF2",
"S&	c #F6FDF2",
"T&	c #F9FFF6",
"U&	c #FAFDFF",
"V&	c #FFFEFB",
"W&	c #FFFDFC",
"X&	c #F9FFF7",
"Y&	c #F7FFF4",
"Z&	c #AFBCAC",
"`&	c #748272",
" *	c #6C7A6A",
".*	c #6E7C6C",
"+*	c #808E82",
"@*	c #A0AA9D",
"#*	c #94851F",
"$*	c #FCD22D",
"%*	c #C25D1A",
"&*	c #D66635",
"**	c #DC7624",
"=*	c #E2A710",
"-*	c #FBDC16",
";*	c #E8A92A",
">*	c #BA430D",
",*	c #C54623",
"'*	c #BC4022",
")*	c #D85D12",
"!*	c #E7AD22",
"~*	c #89832E",
"{*	c #3C4B33",
"]*	c #98A899",
"^*	c #F4FCFA",
"/*	c #FCFEF9",
"(*	c #FCFFFB",
"_*	c #F7FCF6",
":*	c #F6FBF5",
"<*	c #F5FAF4",
"[*	c #F2F8F1",
"}*	c #F4FAF3",
"|*	c #F5FCF7",
"1*	c #ACB1A4",
"2*	c #987B24",
"3*	c #D68C14",
"4*	c #BD4620",
"5*	c #BE4533",
"6*	c #9C360D",
"7*	c #CD6E0F",
"8*	c #FDE438",
"9*	c #F5D935",
"0*	c #E29B19",
"a*	c #E58119",
"b*	c #D46320",
"c*	c #DA8313",
"d*	c #E0C93A",
"e*	c #595E1D",
"f*	c #3F5036",
"g*	c #485740",
"h*	c #DBE6D9",
"i*	c #F8FDFB",
"j*	c #FDFDFC",
"k*	c #F6FCF9",
"l*	c #6A7769",
"m*	c #735D1D",
"n*	c #EAAC32",
"o*	c #DB7E0A",
"p*	c #C96807",
"q*	c #CD741E",
"r*	c #D9871A",
"s*	c #FDEA63",
"t*	c #FDF790",
"u*	c #FAE171",
"v*	c #EFC33F",
"w*	c #D8971B",
"x*	c #F3D03C",
"y*	c #888A1D",
"z*	c #566739",
"A*	c #465A35",
"B*	c #435436",
"C*	c #9DAE98",
"D*	c #F6FEFC",
"E*	c #F2F8F5",
"F*	c #516857",
"G*	c #43471F",
"H*	c #86751D",
"I*	c #DDC235",
"J*	c #ECCC3E",
"K*	c #B88E2E",
"L*	c #AC8C29",
"M*	c #F7F5B1",
"N*	c #FEFAF0",
"O*	c #FCFCED",
"P*	c #AEAE7A",
"Q*	c #988C39",
"R*	c #767A18",
"S*	c #4F622C",
"T*	c #516E45",
"U*	c #57703E",
"V*	c #526641",
"W*	c #70856C",
"X*	c #EEF7F6",
"Y*	c #F8FDFA",
"Z*	c #7A917A",
"`*	c #3B5230",
" =	c #44552D",
".=	c #54631E",
"+=	c #5E6824",
"@=	c #515426",
"#=	c #858772",
"$=	c #FAFBF5",
"%=	c #FAFAF8",
"&=	c #F2FAF4",
"*=	c #C9DCD0",
"==	c #4C5D43",
"-=	c #4B5C32",
";=	c #4C6448",
">=	c #436737",
",=	c #537038",
"'=	c #597442",
")=	c #5F7853",
"!=	c #E6EFE8",
"~=	c #FDFFFD",
"{=	c #FAFFFB",
"]=	c #C6D6BF",
"^=	c #4A6034",
"/=	c #4B6043",
"(=	c #4C6035",
"_=	c #4B5E36",
":=	c #788665",
"<=	c #E5EDDC",
"[=	c #F8FEF9",
"}=	c #F3FCFB",
"|=	c #C2D6C5",
"1=	c #798B6A",
"2=	c #516A46",
"3=	c #4A6F36",
"4=	c #51713C",
"5=	c #5C7E39",
"6=	c #7B9762",
"7=	c #E6EEE0",
"8=	c #F3F7F4",
"9=	c #76846E",
"0=	c #4D6247",
"a=	c #4A5F3C",
"b=	c #86937B",
"c=	c #EFF2E6",
"d=	c #FDFEF3",
"e=	c #FDFEFB",
"f=	c #FDFEFD",
"g=	c #F6FEFA",
"h=	c #F9FDF4",
"i=	c #DAE4D2",
"j=	c #B6C7AD",
"k=	c #A2B09B",
"l=	c #A2B191",
"m=	c #D8E5CB",
"n=	c #FAFDF7",
"o=	c #DAE4D9",
"p=	c #7D917A",
"q=	c #A7BAA4",
"r=	c #EBF3E9",
"s=	c #FAFDF9",
"t=	c #F0F6EF",
"u=	c #F9FDF8",
"v=	c #FBFCFA",
"w=	c #FEFCFE",
"x=	c #FEFBFE",
"y=	c #FBFFFA",
"z=	c #F8FFF7",
"              . . + @ # +             . $ % & * = &                             ",
"            . . . . - -               ; ; ; > , , > ; ; ; ; ; ;                 ",
"            . .   ; ; ; ;             ' ) ) ) ! ~ ! ' ' ' ' ' '                 ",
"                    { ] ^         / ( _ : < [ } | 1 ; 2 ; 2 ; !                 ",
"              ;   3 4 5 6 - 7 / / / 8 9 0 a b c d e ] 7 ]   f                   ",
"            ; ; . g h i j k l / m m n o p q r s t u v w x y 4 z                 ",
"            ] % A B C D E F G H / I J K L M N O P Q R S T U V z                 ",
"            W X Y Z `  ...+.@.#.$.%.&.*.=.-.;.>.,.'.).!.~.{.].^.                ",
"            /./ ^ (._.:.<.[.}.|.1.2.3.4.5.6.7.8.9.0.a.b.c.d.e.f.                ",
"            / g.d h.i.j.k.l.m.n.o.p.q.r.s.t.u.v.w.x.y.z.A.B.C.D.                ",
"            E.F.G.H.I.J.K.L.M.N.O.P.Q.R.S.T.U.V.W.X.Y.Z.`. +.+++] @+/           ",
"            #+$+%+&+*+=+-+;+>+,+'+)+!+~+{+]+^+/+(+_+:+<+[+}+|+1+2+  /           ",
"            ^.3+4+5+6+7+8+9+0+a+b+c+d+e+f+g+h+i+j+k+l+m+n+o+p+7                 ",
"    E.E.  8 q+q+r+s+t+u+v+w+x+y+z+A+B+C+D+E+F+G+H+I+J+K+L+M+N+O+P+Q+G.R+  . -   ",
", ; ~ }   S+T+U+V+W+X+Y+Z+`+ @.@+@@@#@$@%@&@*@=@-@;@>@,@'@)@!@~@{@]@^@/@(@_@:@  ",
"$ - <@z [@}@|@1@2@3@4@5@6@7@8@9@0@a@b@c@d@e@f@g@h@i@j@k@l@m@n@o@p@q@r@s@~ z :@  ",
"+ _@t@u@v@w@x@y@z@A@B@C@D@E@F@G@H@I@J@K@L@M@N@O@P@Q@R@S@T@U@V@W@X@Y@Z@`@! <@:@  ",
"R+ #.#+#@###$#%#&#*#=#-#;#>#,#'#)#!#~#{#]#^#/#(#_#:#<#[#}#|#1#2#3#4#5#%+) E..   ",
"6#7#8#9#0#a#b#c#d#e#f#g#h#i#j#k#l#m#n#o#p#q#r#s#t#u#v#w#x#y#z#A#B#C#D#E#F#!     ",
"F#) w G#H#I#J#K#L#M#N#O#P#Q#R#S#T#U#V#W#X#Y#Z#`# $.$+$@$#$$$%$&$*$=$-$} ;$)     ",
"F#! >$,$'$)$!$~${$]$^$/$($_$:$<$[$}$|$1$2$3$4$5$6$7$8$9$0$a$b$c$d$e$f$g$3+> h$  ",
"      / i$j$k$l$m$n$o$p$q$r$s$t$u$v$w$x$y$z$A$B$C$D$E$F$G$H$I$J$K$L$M$N$O$P$<   ",
"      / / Q$R$S$T$U$V$W$X$Y$Z$`$ %.%+%@%#%$%%%&%*%=%-%;%>%,%'%)%!%~%{%]%^%/%H   ",
"      / / / (%_%:%<%[%}%|%1%2%3%4%5%6%7%8%9%0%a%b%c%d%e%f%g%h%i%j%k%l%m%n%o%p%  ",
"            q%r%s%t%u%v%w%x%y%z%A%B%C%D%E%F%G%H%I%J%K%L%M%N%O%P%Q%R%S%T%U%V%E.  ",
"            W%X%Y%Z%`% &.&+&@&#&$&%&&&*&=&-&;&>&,&'&)&!&~&{&]&^&/&(&_&:&<&[&E.  ",
"            }&|&1&2&3&4&5&6&7&8&9&0&a&b&c&d&e&f&g&h&i&j&k&l&m&n&o&p&q&r&s&t&'   ",
"            u&v&w&x&y&z&A&B&C&D&E&F&G&H&I&J&K&L&M&N&O&P&Q&R&(%S&T&+ U&u _ V&W&  ",
"            X&Y&Z&`& *.*+*@*#*$*%*&***=*-*;*>*,*'*)*!*~*{*]*^*/*8               ",
"            (*_*:*<*[*}*|*1*2*3*4*5*6*7*8*9*0*a*b*c*d*e*f*g*h*i*                ",
"            8 3+  / 3+j*k*l*m*n*o*p*q*r*s*t*u*v*w*x*y*z*A*B*C*D*                ",
"            ! ! ! ! ! ! E*F*G*H*I*J*K*L*M*N*O*P*Q*R*S*T*U*V*W*X*                ",
"                        Y*Z*`* =.=+=@=#=$=%=&=*===-=;=>=,='=)=!=                ",
"            ~=(*(*(*(*(*{=]=^=/=(=_=:=<=F#E#[=}=|=1=2=3=4=5=6=7=8               ",
"            8 $ ~=~=$ $ E#8=9=0=a=b=c=d=2 E#e=f=g=h=i=j=k=l=m=n=                ",
"                        ] f o=p=q=r=f ]               7 7 /   @+                ",
"                        / 3+s=t=u=s=8                 /   @+  /                 ",
"                        8 v=^ w=x=^ 3+                7 7 7                     ",
"                          ~=  ] ]   ~=                                          ",
"                          8 y=z=X&y=8                                           "};
