/* XPM */
static char * lock_xpm[] = {
"16 16 4 1",
" 	c None",
".	c #000000",
"+	c #888888",
"@	c #E2E2E2",
"     .....      ",
"    .+++++.     ",
"   .+++++++.    ",
"  .+++...+++.   ",
"  .++.   .++.   ",
"  .++.   .++.   ",
" .............  ",
" .@@@@@@@@@@@.  ",
" .@@@@...@@@@.  ",
" .@@@@...@@@@.  ",
" .@@@@...@@@@.  ",
" .@@@@@.@@@@@.  ",
" .@@@@...@@@@.  ",
" .@@@@@@@@@@@.  ",
" .............  ",
"                "};
