/* XPM */
static char * mute_xpm[] = {
"22 22 46 1",
" 	c None",
".	c #000000",
"+	c #181C18",
"@	c #393839",
"#	c #202020",
"$	c #8B898B",
"%	c #949594",
"&	c #BDBEBD",
"*	c #A4A1A4",
"=	c #D5D2D5",
"-	c #DEDADE",
";	c #171717",
">	c #474847",
",	c #DEDEDE",
"'	c #EEEAEE",
")	c #EEEEEE",
"!	c #ACAAAC",
"~	c #626262",
"{	c #E6E6E6",
"]	c #575757",
"^	c #DCDAD5",
"/	c #5C5C5C",
"(	c #DAD8D5",
"_	c #555555",
":	c #313431",
"<	c #181818",
"[	c #CDCECD",
"}	c #C5C6C5",
"|	c #1B1C1B",
"1	c #292829",
"2	c #BDBABD",
"3	c #313031",
"4	c #C5C2C5",
"5	c #4E4E4E",
"6	c #090909",
"7	c #B4B2B4",
"8	c #B4B6B4",
"9	c #4A494A",
"0	c #838583",
"a	c #202420",
"b	c #949194",
"c	c #626562",
"d	c #8B8D8B",
"e	c #ACAEAC",
"f	c #838183",
"g	c #050805",
"        ......        ",
"     ............     ",
"    .....    .....    ",
"   ...      +@  ...   ",
"  .....    #$@   ...  ",
" .......  #%&@    ... ",
" .. .....#*=-@     .. ",
" ..  ;...>,')@ @@  .. ",
"...  !>...~'{@  @] ...",
"..   ^^;.../-.@  @  ..",
"..   ^(@/..._:<  @  ..",
"..   [}:=_...|1@ @  ..",
"..   &23}45...6  @  ..",
"...  773&879.... @ ...",
" ..  00ab7779...;  .. ",
" ..  @@c+d777;.... .. ",
" ...     #b77@....... ",
"  ...     #de@ .....  ",
"   ...     #f@  ...   ",
"    .....   g<....    ",
"     ............     ",
"        ......        "};
