/* XPM */
static char * razor_xpm[] = {
"32 32 4 1",
" 	c None",
".	c #000000",
"+	c #CCCCCC",
"@	c #666666",
"                                ",
"                                ",
"                                ",
"            ..                  ",
"        .. .+@.                 ",
"       .++.+++@.                ",
"      .++++++++@.               ",
"     .++++++++++@.              ",
"    .+++++..+++++@.             ",
"    .++++. .++++++@.            ",
"     .++.  .+++++++@.           ",
"    .+++... ..++++++@.          ",
"   .+++++++. .+++++++@.         ",
"   .@++++++.. ...+++++@.        ",
"    .@+++++++.   .+++++@.       ",
"     .@++++++.   .++++++@.      ",
"      .@+++++.   .+++++++@.     ",
"       .@+++++... ..++++++@.    ",
"        .@+++++++. .+++++++.    ",
"         .@++++++.. ...+++.     ",
"          .@+++++++.  .++.      ",
"           .@++++++. .++++.     ",
"            .@+++++..+++++.     ",
"             .@++++++++++.      ",
"              .@++++++++.       ",
"               .@+++.++.        ",
"                .@+. ..         ",
"                 ..             ",
"                                ",
"                                ",
"                                ",
"                                "};
