/* XPM */
static char * snap_xpm[] = {
"16 16 4 1",
" 	c None",
".	c #000000",
"+	c #E2E2E2",
"@	c #888888",
"                ",
"                ",
"                ",
"    ........    ",
"   .+++++@@. ...",
"  .++++++@@.    ",
" .+++....... ...",
" .++.           ",
" .++.           ",
" .++.           ",
" .+++....... ...",
"  .++++++@@.    ",
"   .+++++@@. ...",
"    ........    ",
"                ",
"                "};
