/* XPM */
static char * source_xpm[] = {
"16 16 133 2",
"  	c None",
". 	c #000000",
"+ 	c #667B19",
"@ 	c #C8B62C",
"# 	c #ECB330",
"$ 	c #EE942B",
"% 	c #F07328",
"& 	c #F25324",
"* 	c #F03E23",
"= 	c #E44026",
"- 	c #D84328",
"; 	c #CC452C",
"> 	c #C0472E",
", 	c #783726",
"' 	c #506C15",
") 	c #B6B229",
"! 	c #ECBD31",
"~ 	c #EE9C2D",
"{ 	c #EF7D29",
"] 	c #F25D26",
"^ 	c #F33E22",
"/ 	c #E74024",
"( 	c #DB4227",
"_ 	c #CF442B",
": 	c #C4462E",
"< 	c #AD4A33",
"[ 	c #8C503B",
"} 	c #6D4253",
"| 	c #A5AF27",
"1 	c #E0BC2F",
"2 	c #EDA52E",
"3 	c #EF862A",
"4 	c #F16627",
"5 	c #F34623",
"6 	c #EB3F24",
"7 	c #DF4127",
"8 	c #D3432A",
"9 	c #C7462D",
"0 	c #B74831",
"a 	c #964E38",
"b 	c #855156",
"c 	c #824F86",
"d 	c #D0B82C",
"e 	c #EDAE2F",
"f 	c #EF8E2C",
"g 	c #F06F28",
"h 	c #F24F24",
"i 	c #EE3E23",
"j 	c #E24026",
"k 	c #D74329",
"l 	c #CA452C",
"m 	c #BE472E",
"n 	c #9F4D36",
"o 	c #875148",
"p 	c #835078",
"q 	c #7F4FA8",
"r 	c #ECB831",
"s 	c #EE982D",
"t 	c #F07829",
"u 	c #F25825",
"v 	c #F23E22",
"w 	c #E64025",
"x 	c #D94228",
"y 	c #CD442B",
"z 	c #C2462E",
"A 	c #A94C34",
"B 	c #88513C",
"C 	c #84506B",
"D 	c #804F9A",
"E 	c #7C4DCA",
"F 	c #EEA12D",
"G 	c #F0812A",
"H 	c #F26126",
"I 	c #F34222",
"J 	c #E93F24",
"K 	c #DD4227",
"L 	c #D1442A",
"M 	c #C6452D",
"N 	c #B24931",
"O 	c #925039",
"P 	c #85515D",
"Q 	c #814F8D",
"R 	c #7E4DBC",
"S 	c #7A4CEC",
"T 	c #EE8B2B",
"U 	c #F06B27",
"V 	c #F34B23",
"W 	c #ED3E23",
"X 	c #E14126",
"Y 	c #D54329",
"Z 	c #C8462C",
"` 	c #BB4730",
" .	c #9B4E37",
"..	c #865050",
"+.	c #834F7F",
"@.	c #7F4EAF",
"#.	c #7B4DDF",
"$.	c #7A53FF",
"%.	c #DE6A25",
"&.	c #F25424",
"*.	c #F03D23",
"=.	c #E44025",
"-.	c #D94328",
";.	c #A54C35",
">.	c #875141",
",.	c #844F71",
"'.	c #7F4EA1",
").	c #7C4DD0",
"!.	c #794CFF",
"~.	c #7E63FE",
"{.	c #B1441B",
"].	c #F33E21",
"^.	c #E73F25",
"/.	c #DC4227",
"(.	c #D0442A",
"_.	c #C3472D",
":.	c #AE4A32",
"<.	c #845164",
"[.	c #814F93",
"}.	c #7D4DC3",
"|.	c #794CF3",
"1.	c #7D5DFE",
"2.	c #4F469A",
"3.	c #AC2E1A",
"4.	c #DF4126",
"5.	c #C7452D",
"6.	c #B74830",
"7.	c #974F39",
"8.	c #824F85",
"9.	c #7E4EB5",
"0.	c #7B4CE5",
"a.	c #7C56FE",
"b.	c #5447A6",
"                                ",
"                                ",
". . . . . . . . . . . . . . . . ",
". . + @ # $ % & * = - ; > , . . ",
". ' ) ! ~ { ] ^ / ( _ : < [ } . ",
". | 1 2 3 4 5 6 7 8 9 0 a b c . ",
". d e f g h i j k l m n o p q . ",
". r s t u v w x y z A B C D E . ",
". F G H I J K L M N O P Q R S . ",
". T U V W X Y Z `  ...+.@.#.$.. ",
". %.&.*.=.-.y > ;.>.,.'.).!.~.. ",
". {.].^./.(._.:.[ <.[.}.|.1.2.. ",
". . 3.4.8 5.6.7.b 8.9.0.a.b.. . ",
". . . . . . . . . . . . . . . . ",
"                                ",
"                                "};
