/* XPM */
static char * titles_xpm[] = {
"18 20 41 1",
" 	c None",
".	c #000000",
"+	c #D7D7D7",
"@	c #D3D3D3",
"#	c #CECFCF",
"$	c #CBCBCB",
"%	c #C8C8C7",
"&	c #C5C4C4",
"*	c #C1C1C1",
"=	c #BFBFBF",
"-	c #BDBCBD",
";	c #BBBBBA",
">	c #BAB9B9",
",	c #B9B9B8",
"'	c #B9B8B9",
")	c #B8B9B8",
"!	c #BCBBBC",
"~	c #B9B9B9",
"{	c #B7B7B7",
"]	c #B3B3B3",
"^	c #B1B1B1",
"/	c #AFAEAE",
"(	c #ADADAD",
"_	c #A9A9AA",
":	c #A8A8A8",
"<	c #A4A5A4",
"[	c #A4A3A4",
"}	c #9FA0A0",
"|	c #A09F9F",
"1	c #9B9B9B",
"2	c #9D9D9C",
"3	c #989797",
"4	c #9A9A9A",
"5	c #949493",
"6	c #979798",
"7	c #929192",
"8	c #969696",
"9	c #909090",
"0	c #8F8F90",
"a	c #969796",
"b	c #919191",
"                  ",
"                  ",
" ................ ",
" .+@#$%&*=-;>,'). ",
" .......!~....... ",
" .     .{].     . ",
"       .^/.       ",
"       .(_.       ",
"       .:<.       ",
"       .[}.       ",
"       .|1.       ",
"       .23.       ",
"       .45.       ",
"       .67.       ",
"       .89.       ",
"       .80.       ",
"       .ab.       ",
"     ........     ",
"                  ",
"                  "};
