/* XPM */
static char * trash_xpm[] = {
"16 16 4 1",
" 	c None",
".	c #000000",
"+	c #B3B3B3",
"@	c #404040",
"     .......    ",
"   ...+++++...  ",
"  ..+++...+++.. ",
" ..+++.+++.+++..",
" ..+++++++++++..",
"  ..+++++++++.. ",
"  ....+++++.... ",
"  .++.......++. ",
"  .++@++@++@++. ",
"  .++@++@++@++. ",
"  .++@++@++@++. ",
"  .++@++@++@++. ",
"  .++@++@++@++. ",
"  ..+@++@++@+.. ",
"   ...++@++...  ",
"     .......    "};
