/* XPM */
static char * video_xpm[] = {
"16 16 74 1",
" 	c None",
".	c #000000",
"+	c #D6D6D6",
"@	c #CDCCCC",
"#	c #C2C2C2",
"$	c #B7B8B7",
"%	c #ACADAC",
"&	c #A2A2A1",
"*	c #969796",
"=	c #8B8B8B",
"-	c #808080",
";	c #757575",
">	c #6A6A6A",
",	c #CFCFCF",
"'	c #C7C6C7",
")	c #BCBDBD",
"!	c #B3B3B3",
"~	c #A9A9A9",
"{	c #9E9E9E",
"]	c #939393",
"^	c #898988",
"/	c #7E7D7E",
"(	c #737272",
"_	c #676768",
":	c #C6C6C6",
"<	c #BFBEBF",
"[	c #B6B6B6",
"}	c #ADAEAD",
"|	c #A4A3A4",
"1	c #999A99",
"2	c #8F8F8F",
"3	c #848584",
"4	c #7B7A7B",
"5	c #706F6F",
"6	c #646464",
"7	c #BDBDBD",
"8	c #B6B7B6",
"9	c #AFAEAF",
"0	c #A7A7A6",
"a	c #9D9D9D",
"b	c #949394",
"c	c #8A8B8B",
"d	c #808081",
"e	c #767676",
"f	c #6B6C6C",
"g	c #616161",
"h	c #ADADAE",
"i	c #A6A6A7",
"j	c #9F9F9F",
"k	c #969696",
"l	c #8E8E8E",
"m	c #848484",
"n	c #717171",
"o	c #676767",
"p	c #5C5C5D",
"q	c #A9A9A8",
"r	c #A4A3A3",
"s	c #969697",
"t	c #8F8E8E",
"u	c #868686",
"v	c #7E7E7E",
"w	c #757475",
"x	c #6B6B6B",
"y	c #616162",
"z	c #575757",
"A	c #99999A",
"B	c #949494",
"C	c #878686",
"D	c #7F7E7F",
"E	c #767776",
"F	c #6E6E6E",
"G	c #656564",
"H	c #5B5C5B",
"I	c #515151",
" .............  ",
" . . . . . . .  ",
" . . . . . . .  ",
" .............  ",
" .+@#$%&*=-;>.  ",
" .,')!~{]^/(_.  ",
" .:<[}|123456.  ",
" .7890abcdefg.  ",
" .!hijklm4nop.  ",
" .qrastuvwxyz.  ",
" .{ABlCDEFGHI.  ",
" .............  ",
" . . . . . . .  ",
" . . . . . . .  ",
" .............  ",
"                "};
